<?xml version="1.0" standalone="no"?><!DOCTYPE svg PUBLIC "-//W3C//DTD SVG 1.1//EN" "http://www.w3.org/Graphics/SVG/1.1/DTD/svg11.dtd"><svg class="icon" width="200px" height="200.00px" viewBox="0 0 1024 1024" version="1.1" xmlns="http://www.w3.org/2000/svg"><path d="M399.758 512a112.242 99.003 0 1 0 224.484 0 112.242 99.003 0 1 0-224.484 0Z"  /><path d="M512 268.202c-283.088 0-409.3 224.596-409.3 243.798 0 22.805 124.385 243.798 409.3 243.798 284.916 0 409.3-220.993 409.3-243.798 0-19.202-126.21-243.798-409.3-243.798z m0 406.892c-102.613 0-185.797-73.02-185.797-163.094S409.387 348.904 512 348.904 697.799 421.926 697.799 512 614.613 675.094 512 675.094z"  /></svg>